<svg xmlns="http://www.w3.org/2000/svg" viewBox="0 0 32 32"><defs><linearGradient id="b" x1="49.009" x2="225.83" y1="213.75" y2="129.72" gradientUnits="userSpaceOnUse"><stop offset="0" stop-color="#e40035"/><stop offset=".24" stop-color="#f60a48"/><stop offset=".352" stop-color="#f20755"/><stop offset=".494" stop-color="#dc087d"/><stop offset=".745" stop-color="#9717e7"/><stop offset="1" stop-color="#6c00f5"/></linearGradient><linearGradient id="c" x1="41.025" x2="156.74" y1="28.344" y2="160.34" gradientUnits="userSpaceOnUse"><stop offset="0" stop-color="#ff31d9"/><stop offset="1" stop-color="#ff5be1" stop-opacity="0"/></linearGradient><clipPath id="a"><path fill="#fff" d="M0 0h223v236H0z"/></clipPath></defs><g clip-path="url(#a)" transform="translate(2.76 1.986)scale(.11923)"><path fill="url(#b)" d="m222.08 39.192-8.019 125.92L137.39-.008zm-53.105 162.82-57.933 33.056-57.934-33.056 11.783-28.556h92.301zm-57.933-139.34 30.357 73.803H80.684zm-103.1 102.44L.005 39.192 84.695 0z"/><path fill="url(#c)" d="m222.08 39.192-8.019 125.92L137.39-.008zm-53.105 162.82-57.933 33.056-57.934-33.056 11.783-28.556h92.301zm-57.933-139.34 30.357 73.803H80.684zm-103.1 102.44L.005 39.192 84.695 0z"/></g></svg>