<svg xmlns="http://www.w3.org/2000/svg" xmlns:xlink="http://www.w3.org/1999/xlink" viewBox="0 0 32 32"><defs><radialGradient id="a" cx="22.737" cy="22.737" r="3.628" gradientTransform="rotate(-81.5 21.8 23.545)scale(1 1.071)" gradientUnits="userSpaceOnUse"><stop offset="0" stop-color="#bedcdc"/><stop offset=".5" stop-color="#8e9e9e" stop-opacity=".74"/><stop offset="1" stop-color="#404f5c" stop-opacity=".84"/></radialGradient><radialGradient xlink:href="#a" id="b" cx="11.336" cy="11.336" r="5.201" gradientTransform="rotate(-81.5 10.869 11.738)scale(1 1.071)"/></defs><path d="m24.811 27.318 2.404-2.404 1.202 2.404-1.202 1.202zM20.964 27.443h3.401l-.85 2.55h-1.7zM18.157 24.811l2.404 2.404-2.404 1.202-1.203-1.202zM18.032 20.964v3.401l-2.55-.85v-1.7zM20.664 18.157l-2.404 2.404-1.202-2.404 1.202-1.203zM24.51 18.032h-3.4l.85-2.55h1.7zM27.318 20.664l-2.404-2.404 2.404-1.202 1.202 1.202zM27.443 24.51v-3.4l2.55.85v1.7z" style="fill:silver"/><path d="M27.776 22.737a5.039 5.039 0 1 1-1.476-3.562 5.02 5.02 0 0 1 1.476 3.562m-5.039-1.9a1.9 1.9 0 1 0 1.344.557 1.9 1.9 0 0 0-1.344-.557" style="fill:silver"/><path d="M22.656 18.074a4.664 4.664 0 1 0 4.744 4.582 4.664 4.664 0 0 0-4.744-4.582m.15 8.61a3.947 3.947 0 1 1 3.877-4.015 3.947 3.947 0 0 1-3.877 4.015" style="fill:#a9a9a9"/><path d="M22.674 19.11a3.628 3.628 0 1 0 3.69 3.564 3.63 3.63 0 0 0-3.69-3.564m.1 5.7a2.073 2.073 0 1 1 2.037-2.11 2.073 2.073 0 0 1-2.037 2.11" style="fill:url(#a)"/><path d="M22.7 20.665a2.073 2.073 0 1 0 2.11 2.035 2.073 2.073 0 0 0-2.11-2.035m.067 3.826a1.754 1.754 0 1 1 1.723-1.784 1.754 1.754 0 0 1-1.722 1.784Z" style="fill:#a9a9a9"/><path d="m6.563 16.976 2.275 1.262-1.464 1.568-1.365-.757zM4.382 13.834l1.34 2.23-2.052.626-.804-1.338zM4.065 10.023l.045 2.601-2.09-.484-.027-1.561zM5.696 6.563 4.434 8.838 2.866 7.374l.757-1.365zM8.838 4.382l-2.23 1.34-.626-2.052 1.338-.804zM12.65 4.065l-2.602.045.484-2.09 1.561-.027zM16.109 5.696l-2.275-1.262 1.464-1.568 1.365.757zM18.29 8.838l-1.34-2.23 2.052-.626.804 1.338zM18.607 12.65l-.045-2.602 2.09.484.027 1.561zM16.976 16.109l1.262-2.275 1.568 1.464-.757 1.365zM13.834 18.29l2.23-1.34.626 2.052-1.338.804zM10.023 18.607l2.601-.045-.484 2.09-1.561.027z" style="fill:silver"/><path d="M11.467 18.831a7.5 7.5 0 1 1 5.261-2.288 7.47 7.47 0 0 1-5.261 2.288m2.682-7.544a2.814 2.814 0 1 0-.789 2 2.8 2.8 0 0 0 .789-2" style="fill:silver"/><path d="M11.218 4.6a6.737 6.737 0 1 0 6.854 6.619A6.737 6.737 0 0 0 11.218 4.6m.217 12.436a5.7 5.7 0 1 1 5.6-5.8 5.7 5.7 0 0 1-5.599 5.8Z" style="fill:#a9a9a9"/><path d="M11.245 6.136a5.2 5.2 0 1 0 5.29 5.109 5.2 5.2 0 0 0-5.29-5.109m.14 8.036a2.837 2.837 0 1 1 2.787-2.886 2.837 2.837 0 0 1-2.786 2.886Z" style="fill:url(#b)"/><path d="M11.282 8.227a3.109 3.109 0 1 0 3.163 3.055 3.11 3.11 0 0 0-3.163-3.055m.1 5.74a2.631 2.631 0 1 1 2.585-2.677 2.63 2.63 0 0 1-2.585 2.677" style="fill:#a9a9a9"/></svg>