<svg xmlns="http://www.w3.org/2000/svg" viewBox="0 0 32 32"><path d="M11.84 29.2c1.17.47 2.44.75 3.78.8 1.81.06 3.52-.31 5.06-1.02-1.84-.72-3.51-1.78-4.93-3.1a8.48 8.48 0 0 1-3.9 3.32Z" style="fill:#ff9100"/><path d="M15.74 25.88c-3.25-3-5.22-7.35-5.05-12.12 0-.15.01-.31.02-.46a8.495 8.495 0 0 0-4.39.05c-.87 1.52-1.39 3.26-1.46 5.13-.17 4.82 2.75 9.03 6.98 10.73a8.37 8.37 0 0 0 3.9-3.32Z" style="fill:#ffc400"/><path d="M15.74 25.88a8.4 8.4 0 0 0 1.27-4.15c.14-4.02-2.56-7.47-6.3-8.44 0 .15-.02.31-.02.46a15.69 15.69 0 0 0 5.05 12.12Z" style="fill:#ff9100"/><path d="M16.59 2c-2.13 1.7-3.81 3.95-4.83 6.54a15.6 15.6 0 0 0-1.05 4.75 8.41 8.41 0 0 1 6.3 8.44 8.27 8.27 0 0 1-1.27 4.15 15.8 15.8 0 0 0 4.93 3.1c3.7-1.71 6.32-5.38 6.47-9.73.1-2.82-.98-5.33-2.51-7.45-1.62-2.24-8.04-9.79-8.04-9.79Z" style="fill:#dd2c00"/><circle cx="23" cy="23" r="7" style="fill:#fff"/><path d="m23 23.35-3.15 1.4v-1.4l3.15-1.4 3.15 1.4v1.23-.26.44L23 23.36Zm0-3.85 3.15 1.4v1.4L23 20.9l-3.15 1.4v-1.4zm1.18 5.08 1.57.7-2.76 1.23v-1.4l1.18-.52Z" style="fill:#5e5e5e;fill-rule:evenodd"/></svg>