<svg xmlns="http://www.w3.org/2000/svg" viewBox="0 0 32 32"><path d="M6.534 13.451A9.83 9.83 0 0 1 11.1 7.5L9 3.856a14.04 14.04 0 0 0-6.522 8.5ZM13.464 6.529a9.8 9.8 0 0 1 2.529-.329V2a14 14 0 0 0-3.617.472ZM18.546 6.529a9.82 9.82 0 0 1 5.938 4.571L28.125 9a14.03 14.03 0 0 0-8.482-6.522ZM2.005 16a14 14 0 0 0 .472 3.617l4.057-1.088a9.8 9.8 0 0 1-.328-2.537h-4.2ZM3.878 23.006a14 14 0 0 0 2.217 2.9l2.969-2.969A10 10 0 0 1 7.5 20.909ZM9 28.127A13.9 13.9 0 0 0 15.985 30v-4.2a9.74 9.74 0 0 1-4.885-1.313ZM24.475 20.909a9.82 9.82 0 0 1-5.946 4.553l1.088 4.057a14.03 14.03 0 0 0 8.491-6.514ZM29.517 19.765a14.05 14.05 0 0 0 0-7.266l-4.065 1.088a9.8 9.8 0 0 1 0 5.09Z"/></svg>